<svg xmlns="http://www.w3.org/2000/svg" height="1024" preserveAspectRatio="none" style="display: block;" version="1.1" viewBox="0 0 2048 2048" width="1024">
<path d="M 0 0 L 2048 0 L 2048 2048 L 0 2048 L 0 0 z" fill="rgb(254,255,254)" transform="translate(0,0)"></path>
<path d="M 1007.39 473.248 C 1046.36 467.684 1079.93 496.514 1096.89 529.025 C 1109.9 553.945 1114.75 577.958 1117.45 605.844 L 1324.3 606.116 C 1326.75 571.302 1334.74 539.439 1355.53 510.675 C 1383.48 472.016 1433.12 460.333 1471.8 491.251 C 1507.36 519.667 1517.75 562.745 1523.09 606.027 L 1607.24 605.981 C 1643.32 605.975 1680.15 601.39 1703.26 636.1 C 1707.73 642.808 1713.55 655.347 1714.32 663.33 C 1717.02 691.454 1719.25 719.595 1722.07 747.719 C 1729.34 813.833 1735.79 880.036 1741.4 946.311 C 1758.44 1132.38 1773.86 1318.59 1787.68 1504.92 C 1794.4 1585 1800.34 1665.15 1805.5 1745.36 L 1811.15 1819.01 C 1814.74 1866.94 1824.05 1897.49 1777.99 1926.14 C 1860.31 1925.6 1942.71 1927.51 2025.03 1926.93 C 2036.68 1926.85 2050.7 1935.21 2038.78 1946.94 C 2035.52 1950.14 2030.27 1949.61 2025.96 1950.03 C 1996.32 1949.78 1966.69 1949.85 1937.04 1949.99 L 1671.06 1949.93 L 1042.75 1949.53 C 942.816 1948.33 840.806 1949.3 740.761 1949.38 L 332.937 1949.56 L 107.126 1950.16 L 43.7119 1950.12 C 36.4472 1950.13 28.6498 1950.55 21.4076 1950.67 C 0.75514 1951.01 -4.18617 1926.38 17.5794 1926.11 C 85.2318 1925.27 153.214 1927.42 220.865 1926.29 C 200.485 1914.23 187.605 1894.95 188.857 1870.54 C 190.03 1847.66 192.571 1824.63 194.604 1801.79 L 206.688 1666.11 C 221.112 1506.17 236.484 1346.3 252.803 1186.54 L 286.124 835.908 L 296.174 716.528 C 298.965 685.16 296.651 649.647 320.025 626.428 C 345.772 600.852 379.859 605.884 412.958 605.924 L 503.804 606.077 C 507.47 561.764 518.974 516.684 557.029 489.096 C 598.033 459.37 646.762 480.942 672.611 519.469 C 690.637 546.337 698.792 573.9 702.366 605.977 L 918.814 606.175 C 924.117 550.843 944.185 484.281 1007.39 473.248 z" fill="rgb(57,19,69)" transform="translate(0,0)"></path>
<path d="M 287.253 887.066 L 1690.26 887.195 L 1621.55 1589.52 L 1602.39 1782.38 L 1596.49 1842.01 C 1593.62 1871.06 1595.19 1886.02 1574.87 1908.66 C 1563 1919.47 1550.1 1926.45 1533.76 1926.83 C 1501.18 1927.6 1468.41 1927.31 1435.82 1927.32 L 1254.6 1927.37 L 691.647 1927.47 L 373.003 1927.44 L 281.816 1927.62 C 268.883 1927.67 252.039 1928.56 239.394 1927.44 C 215.365 1925.32 193.506 1897.77 194.122 1874.25 C 194.559 1857.6 196.286 1841.33 197.732 1825.09 L 205.219 1741.68 L 227.578 1497.31 L 259.726 1168.8 C 268.249 1077.04 276.092 978.143 287.253 887.066 z" fill="rgb(254,206,129)" transform="translate(0,0)"></path>
<path d="M 318.178 1562.08 C 385.32 1562.83 454.1 1561.92 521.427 1561.96 C 518.182 1576.95 514.064 1613.16 512.202 1629.08 C 507.887 1665.99 501.911 1705.84 498.74 1742.63 C 493.961 1743.45 442.903 1743.08 434.598 1742.98 C 389.77 1742.43 342.599 1744.73 298.086 1743.43 C 306.862 1685.79 311.354 1620.51 318.178 1562.08 z" fill="rgb(254,122,92)" transform="translate(0,0)"></path>
<path d="M 402.942 942.124 C 436.261 940.526 470.684 942.713 504.138 941.545 C 510.732 941.315 518.831 941.299 525.346 941.972 C 531.073 942.523 536.645 944.148 541.771 946.762 C 572.944 962.865 569.366 1008.29 533.04 1017.69 C 518.802 1019.99 486.315 1018.19 470.492 1018.55 C 450.181 1018.03 429.271 1019.83 409.036 1018.4 C 376.767 1016.11 363.814 986.806 377.411 959.528 C 382.415 949.49 393.139 944.993 402.942 942.124 z" fill="rgb(57,19,69)" transform="translate(0,0)"></path>
<path d="M 412.669 946.446 C 445.309 945.413 481.713 947.166 513.828 945.972 C 568.462 943.943 572.099 1008.98 525.25 1013.96 L 447.478 1014.05 C 436.186 1014.05 416.092 1015.02 405.782 1013.18 C 365.25 1005.94 367.11 949.226 412.669 946.446 z" fill="rgb(254,122,92)" transform="translate(0,0)"></path>
<path d="M 1162.8 941.242 C 1185.97 940.416 1210.49 941.401 1233.89 941.073 C 1251.1 941.399 1268.34 939.97 1285.5 941.459 C 1314.69 943.99 1331.04 977.498 1313.93 1001.56 C 1307.25 1010.94 1297.98 1014.83 1287.13 1016.73 C 1265.97 1017.48 1242.04 1016.06 1220.44 1016.47 C 1202.83 1015.65 1182.87 1018.14 1165.5 1015.93 C 1120.09 1010.15 1116.8 952.527 1162.8 941.242 z" fill="rgb(57,19,69)" transform="translate(0,0)"></path>
<path d="M 1162.75 946.148 C 1200.4 943.242 1243.83 946.754 1282.12 945.723 C 1317.26 944.776 1333.3 998.061 1289.83 1011.16 C 1262.6 1014.57 1226.76 1010.1 1198.76 1011.88 C 1187.75 1012.57 1162 1012.24 1152.77 1007.49 C 1144.42 1003.11 1138.26 995.468 1135.73 986.384 C 1130.45 966.879 1144.44 950.976 1162.75 946.148 z" fill="rgb(254,122,92)" transform="translate(0,0)"></path>
<path d="M 1421.41 942.213 C 1427.53 941.566 1448.52 941.019 1454.36 941.564 C 1476.69 943.649 1542.19 936.971 1559.48 945.919 C 1569.02 950.894 1576.05 959.622 1578.87 970.001 C 1581.5 979.855 1579.89 990.358 1574.44 998.975 C 1568.38 1008.64 1559.86 1013.21 1549.14 1015.89 C 1529.92 1017.48 1426.52 1018.44 1415.53 1014.18 C 1406.49 1010.68 1399 1003.3 1395.08 994.467 C 1390.77 984.66 1390.78 973.494 1395.09 963.688 C 1400.48 951.312 1409.59 946.564 1421.41 942.213 z" fill="rgb(57,19,69)" transform="translate(0,0)"></path>
<path d="M 1427.42 946.357 C 1452.93 946.032 1478.45 945.895 1503.96 945.946 C 1520.26 945.92 1547.98 943.353 1561.22 952.483 C 1568.3 957.371 1573.12 964.894 1574.61 973.367 C 1578.13 993.236 1565.01 1008.04 1545.86 1011.24 C 1508 1013.61 1466.61 1011.21 1428.45 1011.69 C 1390.84 1012.17 1382.16 951.901 1427.42 946.357 z" fill="rgb(254,122,92)" transform="translate(0,0)"></path>
<path d="M 1568.91 1157.18 L 1572.52 1158.86 C 1573.41 1161.8 1571.35 1177.86 1570.96 1181.73 L 1566.45 1226.3 L 1551.33 1374 L 1527.51 1612.75 C 1523.64 1652.27 1519.86 1692.05 1515.85 1731.57 C 1515.4 1736.05 1513.36 1747.27 1510.13 1749.88 C 1505.36 1753.75 1501.79 1756.58 1495.5 1756.77 C 1481.33 1757.19 1466.87 1756.96 1452.72 1756.91 L 1374.44 1756.83 L 1108.55 1756.89 L 298.939 1756.88 C 296.705 1756.41 297.696 1756.91 296.161 1754.95 C 296.979 1750.91 301.661 1752.01 306.653 1752.02 L 426.446 1752.18 L 1134.6 1752.06 L 1376.73 1752.02 C 1414.99 1752 1453.24 1752.23 1491.49 1752.09 C 1499.7 1752.06 1508.49 1748.01 1510.02 1739.11 C 1512.81 1722.92 1513.97 1706.04 1515.53 1689.66 L 1524.6 1594.86 C 1533.59 1498.64 1543.17 1402.48 1553.32 1306.38 L 1563.19 1210.37 C 1564.85 1194.05 1566.22 1172.93 1568.91 1157.18 z" fill="rgb(57,19,69)" transform="translate(0,0)"></path>
<path d="M 1455.38 1170.13 C 1458.17 1172.37 1472.06 1187.19 1475.58 1190.78 C 1490.05 1205.66 1504.69 1220.37 1519.5 1234.92 L 1479.14 1234.81 C 1478.41 1251.25 1475.28 1281.38 1472.8 1297.64 L 1442.11 1297.58 L 1420.74 1297.71 C 1421.67 1279.38 1425.42 1253.88 1427.34 1234.84 C 1413.57 1234.47 1397.32 1235.49 1383.86 1234.37 C 1407.73 1212.27 1430.75 1193.77 1455.38 1170.13 z" fill="rgb(57,19,69)" transform="translate(0,0)"></path>
<path d="M 1209.99 1218.86 C 1219.99 1231.22 1268.19 1283.58 1268.91 1295.17 C 1269.33 1302.03 1266.54 1308.28 1261.85 1313.19 C 1257.28 1317.97 1250.66 1321.65 1243.92 1321.54 C 1227.99 1321.28 1217.83 1302.39 1207.84 1292.31 L 1207.15 1291.62 C 1199.11 1302.4 1188.23 1318.52 1174.11 1320.7 C 1162.26 1322.53 1146.8 1312.41 1146.12 1299.74 C 1145.25 1283.77 1161.27 1271.03 1171.15 1260.29 C 1184.02 1246.3 1197.87 1233.49 1209.99 1218.86 z" fill="rgb(57,19,69)" transform="translate(0,0)"></path>
<path d="M 982.111 1390.1 C 992.281 1380.61 1005.34 1358.33 1018.05 1358.88 C 1046.47 1360.11 1051.15 1387.83 1030.75 1404.65 C 1027.99 1406.93 1019.64 1417.05 1017.22 1419.73 C 1005.3 1432.51 993.629 1445.52 982.213 1458.76 C 963.876 1440.13 945.899 1417.63 928.091 1398.29 C 914.338 1383.36 923.116 1363.55 942.924 1359.13 C 960.003 1359.16 971.247 1377.84 982.111 1390.1 z" fill="rgb(57,19,69)" transform="translate(0,0)"></path>
<path d="M 1401.53 1386.13 L 1450.98 1386.01 C 1447.97 1405.24 1445.14 1431.54 1443.73 1450.96 L 1476.44 1451.14 C 1466.06 1462.76 1442.01 1484.24 1429.33 1496.5 L 1415.16 1510.98 C 1397.79 1492.41 1376.97 1470.8 1361.39 1451.1 L 1395.36 1451.17 C 1398.01 1431.65 1399.87 1406.01 1401.53 1386.13 z" fill="rgb(57,19,69)" transform="translate(0,0)"></path>
<path d="M 589.933 1160.45 C 591.335 1161.73 592.381 1162.15 592.147 1164.45 C 590.613 1179.54 588.591 1195.45 586.75 1210.42 L 572.752 1320.17 L 535.782 1620.42 L 526.412 1693.93 C 525.464 1701.82 522.903 1734.5 519.394 1738.26 C 518.577 1737.47 516.841 1736.26 516.984 1735.05 C 539.301 1547.64 563.013 1360.1 586.849 1172.77 C 587.404 1168.41 587.763 1164.33 589.933 1160.45 z" fill="rgb(57,19,69)" transform="translate(0,0)"></path>
<path d="M 1055.21 1430.64 C 1055.98 1417.82 1058.33 1402.11 1059.79 1388.97 L 1069.9 1301.22 C 1071.74 1285.54 1084.58 1164.89 1088.26 1159.85 L 1090.07 1159.78 C 1092.08 1163.93 1084.81 1213.4 1083.73 1222.27 L 1065.86 1377.58 L 1060.79 1423.02 C 1060.46 1425.84 1059.16 1438.55 1058.55 1440.79 C 1055.65 1471.21 1051.3 1503.54 1047.73 1534.05 L 1033.11 1662.67 C 1030.68 1683.29 1027.79 1708.95 1025.18 1730.04 C 1024.91 1732.17 1023.25 1732.69 1021.71 1733.22 L 1020.67 1732.21 C 1019.68 1725.79 1026.33 1679.71 1027.48 1669.48 L 1043.57 1530.52 C 1047.25 1498.05 1050.56 1462.8 1055.21 1430.64 z" fill="rgb(57,19,69)" transform="translate(0,0)"></path>
<path d="M 838.936 1159.31 L 842.068 1160.81 C 843.368 1163.62 839.849 1183.37 839.222 1188.09 L 826.83 1284.37 L 787.588 1600.7 L 777.22 1686.79 C 775.639 1700.01 773.573 1722.49 770.621 1734.7 L 768.152 1733.39 C 766.713 1730.05 767.42 1725.8 767.871 1722.1 C 775.132 1662.58 782.573 1603.02 790.04 1543.54 L 815.337 1338.85 L 830.285 1221.02 C 832.301 1205.16 835.447 1173.97 838.936 1159.31 z" fill="rgb(57,19,69)" transform="translate(0,0)"></path>
<path d="M 1333.06 1157.28 L 1335.8 1158.62 C 1337.27 1162.34 1327.88 1235.31 1326.82 1244.77 L 1292.62 1557.13 L 1280.78 1666.62 C 1278.39 1687.75 1275.96 1711.86 1272.41 1732.65 L 1269.84 1731.55 C 1268.07 1726.4 1279.81 1633.43 1280.98 1622.75 L 1315.87 1300.82 L 1326.24 1208.37 C 1327.76 1195.25 1330.27 1169.59 1333.06 1157.28 z" fill="rgb(57,19,69)" transform="translate(0,0)"></path>
<path d="M 1074.55 1814.15 C 1080.97 1813.18 1098.05 1813.59 1105.35 1813.61 L 1159.95 1813.71 L 1302.28 1813.84 C 1309.53 1813.88 1338.99 1812.69 1343.44 1814.78 L 1344.32 1817.85 C 1328.87 1818.86 1077.83 1818.55 1075.51 1817.5 L 1074.55 1814.15 z" fill="rgb(57,19,69)" transform="translate(0,0)"></path>
<path d="M 833.116 1338.44 C 849.498 1338.14 1049.33 1337.4 1052.8 1339 L 1053.42 1342.77 C 1015.16 1344.19 966.714 1342.91 927.886 1342.92 L 862.291 1342.81 C 855.794 1342.8 837.585 1344.55 833.218 1341.46 L 833.116 1338.44 z" fill="rgb(57,19,69)" transform="translate(0,0)"></path>
<path d="M 1147.93 1338.5 L 1248.53 1338.29 C 1259.42 1338.29 1287.48 1337.65 1296.3 1338.72 C 1297.35 1341.18 1297.26 1339.96 1296.25 1342.49 C 1284.45 1343.87 1246.29 1342.99 1232.5 1342.96 L 1136 1342.99 C 1127.7 1343 1087.14 1344.41 1084.07 1340.72 C 1089.45 1337.21 1137.96 1338.52 1147.93 1338.5 z" fill="rgb(57,19,69)" transform="translate(0,0)"></path>
<path d="M 1329.64 1338.2 C 1396.87 1338.35 1464.14 1337.92 1531.35 1338.41 C 1531.87 1338.79 1532.39 1339.17 1532.91 1339.55 L 1532.73 1342.92 L 1394.16 1342.87 L 1350.97 1342.69 C 1345.86 1342.7 1333.36 1344.42 1329.73 1341.42 L 1329.64 1338.2 z" fill="rgb(57,19,69)" transform="translate(0,0)"></path>
<path d="M 795.925 1338.49 C 800.124 1338.64 799.153 1338.02 802.224 1340.02 L 802.398 1341.75 C 798.582 1343.93 609.723 1342.98 588.75 1342.97 C 584.059 1342.68 584.832 1343.48 582.114 1340.98 L 582.893 1339.6 C 587.964 1338.38 634.275 1338.81 642.393 1338.8 L 795.925 1338.49 z" fill="rgb(57,19,69)" transform="translate(0,0)"></path>
<path d="M 805.537 1543.33 C 820.492 1542.57 840.405 1543.1 855.696 1543.08 L 951.407 1543.04 C 961.483 1543.04 1021.03 1541.87 1027.25 1543.72 L 1028.42 1546.75 C 1016.71 1548.49 807.075 1547 805.767 1546.42 L 805.537 1543.33 z" fill="rgb(57,19,69)" transform="translate(0,0)"></path>
<path d="M 1058.58 1543.26 C 1081.04 1542.03 1269.1 1541.59 1275.08 1543.59 L 1276.39 1546.79 C 1261.56 1548.11 1063.26 1547.8 1059.49 1546.51 L 1058.58 1543.26 z" fill="rgb(57,19,69)" transform="translate(0,0)"></path>
<path d="M 426.708 1139.5 L 516.862 1139.44 C 529.576 1139.43 543.279 1139.32 556.054 1139.49 C 558.319 1139.51 559.773 1140.75 561.046 1142.38 C 557.811 1145.03 510.378 1143.98 502.5 1143.98 L 415.852 1143.97 C 408.697 1143.97 372.162 1145.17 368.137 1142 C 372.916 1137.97 417.321 1139.49 426.708 1139.5 z" fill="rgb(57,19,69)" transform="translate(0,0)"></path>
<path d="M 342.356 1339.36 C 347.738 1338.37 543.642 1337.99 549.283 1339.4 L 550.787 1342.43 C 545.345 1343.45 523.266 1343.03 516.186 1343.03 L 441.012 1343.03 L 376.659 1343.02 C 370.188 1343.02 349.679 1343.41 344.371 1342.52 L 342.356 1339.36 z" fill="rgb(57,19,69)" transform="translate(0,0)"></path>
<path d="M 1309.02 1542.35 C 1375.08 1544.91 1443.27 1541.25 1509.39 1543.28 C 1510.74 1543.32 1511.28 1545.67 1511.82 1546.85 C 1495.51 1547.5 1312.16 1547.69 1309.32 1545.8 L 1309.02 1542.35 z" fill="rgb(57,19,69)" transform="translate(0,0)"></path>
<path d="M 561.031 1543.31 C 579.201 1542.45 768.806 1542.42 772.605 1543.69 L 773.943 1547.03 C 749.446 1548.41 707.555 1546.96 682.84 1547.25 C 667.911 1547.43 565.679 1548.18 561.673 1546.2 L 561.031 1543.31 z" fill="rgb(57,19,69)" transform="translate(0,0)"></path>
<path d="M 1373.64 1140.23 C 1386.3 1139.27 1555.57 1138.91 1559.05 1139.95 C 1559.69 1140.15 1560.19 1140.64 1560.76 1140.98 L 1561.21 1144.69 C 1545.61 1144.88 1379.43 1145.29 1374.8 1143.49 L 1373.64 1140.23 z" fill="rgb(57,19,69)" transform="translate(0,0)"></path>
<path d="M 620.829 1139.18 C 640.123 1139.43 806.658 1138.7 811.063 1140.56 L 812.085 1143.72 C 795.616 1144.59 623.392 1144.21 621.343 1142.89 L 620.829 1139.18 z" fill="rgb(57,19,69)" transform="translate(0,0)"></path>
<path d="M 1143.21 1139.5 C 1161.82 1139.51 1301.3 1138.41 1307.27 1141.58 C 1303.13 1145.23 1291.32 1144.28 1285.84 1144.17 L 1180.81 1144.1 C 1170.83 1144.1 1126.86 1145.34 1121.87 1142.08 C 1125.73 1138.37 1137.72 1139.41 1143.21 1139.5 z" fill="rgb(57,19,69)" transform="translate(0,0)"></path>
<path d="M 327.53 1543.33 C 350.259 1543.23 520.031 1541.85 523.581 1544.33 L 523.745 1547.28 C 488.169 1548.32 447.78 1547.34 411.861 1547.3 L 353.91 1547.21 C 348.034 1547.21 331.663 1548.6 327.757 1546.34 L 327.53 1543.33 z" fill="rgb(57,19,69)" transform="translate(0,0)"></path>
<path d="M 871.695 1140.37 C 878.709 1138.97 1055.24 1139.27 1058.27 1140.29 L 1059.8 1143.41 C 1052.35 1144.62 1029.18 1144.06 1020.29 1144.06 L 939.83 1144.03 L 896.164 1144.04 C 889.425 1144.05 881.665 1144.28 874.994 1143.76 C 873.169 1143.61 873.254 1142.65 871.695 1140.37 z" fill="rgb(57,19,69)" transform="translate(0,0)"></path>
<path d="M 600.915 1060.17 L 603.268 1061.53 C 605.3 1067.42 597.93 1114.43 596.327 1123.31 L 593.441 1121.61 C 591.947 1116.28 598.611 1067.04 600.915 1060.17 z" fill="rgb(57,19,69)" transform="translate(0,0)"></path>
<path d="M 1097.39 1063.19 L 1101 1064.19 C 1102.92 1067.68 1097.1 1111.6 1096.32 1119.77 C 1094.24 1120.14 1095.06 1120.15 1092.98 1119.39 C 1091 1113.17 1096.64 1072.99 1097.39 1063.19 z" fill="rgb(57,19,69)" transform="translate(0,0)"></path>
<path d="M 848.905 1061.34 L 851.429 1062.53 C 853.549 1066.43 846.671 1113.6 845.392 1121.02 L 842.742 1120.35 C 840.773 1115.37 847.284 1068.99 848.905 1061.34 z" fill="rgb(57,19,69)" transform="translate(0,0)"></path>
<path d="M 1341.99 1065.39 L 1344.6 1067.25 C 1345.67 1071.81 1340.19 1114.07 1339.22 1120.79 L 1336.85 1119.72 C 1334.3 1114.13 1339.53 1072.09 1341.99 1065.39 z" fill="rgb(57,19,69)" transform="translate(0,0)"></path>
<path d="M 1388.76 1814.22 C 1394.86 1813.46 1426.44 1812.72 1431.33 1814.73 L 1432.38 1817.83 C 1425.96 1818.49 1394.92 1819.1 1389.85 1816.98 L 1388.76 1814.22 z" fill="rgb(57,19,69)" transform="translate(0,0)"></path>
<path d="M 1346.4 610.954 C 1364.19 610.481 1383.59 610.879 1401.5 610.891 L 1567.84 610.957 C 1593.97 610.969 1625.2 609.48 1649.62 611.559 C 1698.39 615.709 1717.43 661.483 1708.13 704.887 C 1705.93 715.146 1705.09 734.735 1704.05 745.375 L 1690.79 882.518 L 780.01 881.979 L 458.561 881.74 L 350.985 881.71 C 330.803 881.691 307.766 882.152 287.805 881.158 C 292.844 809.462 300.366 733.191 307.173 661.345 C 309.738 634.282 335.624 615.266 362.312 611.336 C 370.582 610.323 398.222 610.943 407.406 610.944 L 503.67 610.992 C 503.352 648.101 519.97 726.933 561.65 744.587 C 574.651 750.094 595.114 737.351 596.487 723.075 C 597.256 715.079 595.604 708.872 590.218 702.12 C 576.897 686.175 564.41 691.537 551.377 702.304 C 532.617 677.004 526.37 641.833 525.614 611.029 L 919.029 610.938 C 918.693 628.776 921.266 652.159 925.901 669.862 C 933.674 699.544 955.97 755.202 996.227 744.199 C 1004.89 741.833 1011.19 736.703 1015.24 728.556 C 1019.27 720.598 1019.9 711.347 1017 702.914 C 1014.49 695.707 1009.09 689.874 1002.09 686.821 C 984.82 679.292 971.089 688.076 964.531 704.29 C 947.16 674.699 942.227 644.833 941.104 611.014 C 983.947 610.212 1028.69 610.921 1071.74 610.926 L 1323.96 610.983 C 1323.16 654.444 1337.85 721.705 1380.58 743.29 C 1398.9 752.542 1423.83 723.776 1410.96 703.902 C 1397.96 683.82 1385.56 686.174 1367.89 696.23 C 1351.56 669.535 1347.31 641.593 1346.4 610.954 z" fill="rgb(254,122,92)" transform="translate(0,0)"></path>
<path d="M 1008.82 495.169 C 1068.29 491.641 1091.09 557.658 1095.28 606.093 L 1028.5 606.015 L 940.848 605.97 C 945.638 561.339 959.599 508.07 1008.82 495.169 z" fill="rgb(242,241,247)" transform="translate(0,0)"></path>
<path d="M 1422.16 496.397 C 1477.21 497.763 1495.18 561.898 1500.74 606.131 L 1425.75 606.085 L 1346.74 606.019 C 1349.46 560.915 1369.15 500.537 1422.16 496.397 z" fill="rgb(242,241,247)" transform="translate(0,0)"></path>
<path d="M 593.444 497.168 C 637.526 493.274 666.287 541.833 676.016 578.509 C 678.479 587.794 679.647 596.883 680.856 606.375 L 615.5 606.234 L 525.819 606.02 C 529.403 561.675 543.629 508.12 593.444 497.168 z" fill="rgb(242,241,247)" transform="translate(0,0)"></path>
<path d="M 1909.16 1215.89 C 1928.42 1213.63 1945.87 1227.39 1948.17 1246.64 C 1950.47 1265.89 1936.76 1283.37 1917.51 1285.72 C 1898.2 1288.08 1880.64 1274.31 1878.33 1254.99 C 1876.02 1235.67 1889.84 1218.15 1909.16 1215.89 z" fill="rgb(57,19,69)" transform="translate(0,0)"></path>
<path d="M 1908.64 1220.76 C 1925.25 1218.19 1940.78 1229.64 1943.24 1246.27 C 1945.7 1262.89 1934.14 1278.34 1917.5 1280.69 C 1901.01 1283.01 1885.74 1271.59 1883.31 1255.12 C 1880.87 1238.65 1892.19 1223.31 1908.64 1220.76 z" fill="rgb(242,241,247)" transform="translate(0,0)"></path>
<path d="M 1107.54 320.596 C 1126.36 317.221 1144.34 329.787 1147.65 348.624 C 1150.95 367.462 1138.32 385.398 1119.47 388.634 C 1100.72 391.852 1082.9 379.301 1079.61 360.562 C 1076.32 341.822 1088.81 323.953 1107.54 320.596 z" fill="rgb(57,19,69)" transform="translate(0,0)"></path>
<path d="M 1107.03 325.483 C 1117.39 323.13 1128.21 326.522 1135.38 334.365 C 1142.54 342.209 1144.94 353.295 1141.66 363.399 C 1138.38 373.503 1129.93 381.067 1119.53 383.208 C 1103.66 386.472 1088.13 376.356 1084.71 360.529 C 1081.28 344.703 1091.24 329.07 1107.03 325.483 z" fill="rgb(242,241,247)" transform="translate(0,0)"></path>
<path d="M 145.008 1036.09 C 162.75 1035.7 181.473 1035.98 199.292 1035.96 C 199.355 1047.14 200.123 1085.51 198.205 1093.92 C 182.91 1094.58 159.224 1094.25 144.007 1093.61 C 144.02 1081.56 143.422 1045.91 145.008 1036.09 z" fill="rgb(57,19,69)" transform="translate(0,0)"></path>
<path d="M 149.153 1040.44 L 194.95 1040.44 C 194.922 1056.54 194.722 1072.65 194.35 1088.75 C 184.705 1089.77 159.86 1089.05 148.986 1088.98 C 148.924 1072.8 148.979 1056.62 149.153 1040.44 z" fill="rgb(242,241,247)" transform="translate(0,0)"></path>
<path d="M 119.891 1527.38 C 126.116 1528.69 148.838 1573.54 152.832 1581.68 C 143.539 1582.24 131.967 1581.94 122.5 1581.94 C 115.98 1581.97 95.149 1583.24 90.87 1579.93 C 92.9822 1571.84 114.295 1535.03 119.891 1527.38 z" fill="rgb(57,19,69)" transform="translate(0,0)"></path>
<path d="M 120.63 1535.53 C 125.254 1539.11 141.508 1570.15 145.277 1577.08 L 123.5 1577.09 L 97.4469 1576.97 C 103.831 1564.19 113.311 1548.04 120.63 1535.53 z" fill="rgb(242,241,247)" transform="translate(0,0)"></path>
<path d="M 320.743 408.901 C 357.318 408.2 394.183 409.025 430.789 408.664 C 441.841 408.556 455.434 408.034 466.229 409.178 C 467.968 411.994 467.264 411.805 466.87 415.982 L 370.619 416.286 C 359.942 416.31 331.836 417.061 322.782 415.745 C 320.297 413.082 321.108 413.548 320.743 408.901 z" fill="rgb(242,133,79)" transform="translate(0,0)"></path>
<path d="M 820.966 349.658 C 830.594 347.886 839.837 354.247 841.62 363.873 C 843.403 373.498 837.053 382.749 827.429 384.543 C 817.79 386.34 808.521 379.977 806.735 370.336 C 804.949 360.694 811.323 351.433 820.966 349.658 z" fill="rgb(57,19,69)" transform="translate(0,0)"></path>
<path d="M 820.444 354.545 C 827.296 352.469 834.532 356.344 836.601 363.197 C 838.67 370.05 834.788 377.283 827.933 379.345 C 821.087 381.405 813.867 377.53 811.8 370.686 C 809.734 363.842 813.603 356.618 820.444 354.545 z" fill="rgb(242,241,247)" transform="translate(0,0)"></path>
<path d="M 1879.77 1418.5 C 1888.96 1416.88 1897.72 1423.04 1899.29 1432.24 C 1900.86 1441.44 1894.65 1450.16 1885.44 1451.68 C 1876.3 1453.19 1867.66 1447.03 1866.1 1437.91 C 1864.55 1428.78 1870.65 1420.11 1879.77 1418.5 z" fill="rgb(57,19,69)" transform="translate(0,0)"></path>
<path d="M 1878.13 1423.55 C 1882.29 1421.87 1887.05 1422.61 1890.51 1425.47 C 1893.97 1428.33 1895.6 1432.86 1894.74 1437.27 C 1893.89 1441.68 1890.69 1445.27 1886.41 1446.63 C 1880.12 1448.63 1873.38 1445.3 1871.15 1439.08 C 1868.92 1432.87 1872 1426.01 1878.13 1423.55 z" fill="rgb(242,241,247)" transform="translate(0,0)"></path>
<path d="M 82.7149 1348.72 C 88.4056 1346.62 94.7831 1347.75 99.4086 1351.67 C 104.034 1355.59 106.192 1361.7 105.058 1367.66 C 103.923 1373.61 99.671 1378.5 93.9278 1380.44 C 85.2065 1383.4 75.7294 1378.8 72.6611 1370.11 C 69.5929 1361.43 74.0731 1351.9 82.7149 1348.72 z" fill="rgb(57,19,69)" transform="translate(0,0)"></path>
<path d="M 84.0157 1353.6 C 90.0143 1351.19 96.8391 1354.04 99.346 1359.99 C 101.853 1365.95 99.1142 1372.82 93.1945 1375.42 C 89.2815 1377.14 84.7458 1376.62 81.3275 1374.05 C 77.9091 1371.49 76.1389 1367.28 76.6959 1363.04 C 77.2528 1358.8 80.0505 1355.2 84.0157 1353.6 z" fill="rgb(242,241,247)" transform="translate(0,0)"></path>
<path d="M 1288.77 358.204 C 1298.94 357.442 1314.17 357.943 1324.92 357.947 L 1393.18 358.053 C 1413.69 358.105 1440.69 357.725 1461.46 358.911 C 1463.31 359.017 1463.17 359.776 1464.35 361.725 C 1454.67 363.179 1291.67 362.303 1289.8 361.45 L 1288.77 358.204 z" fill="rgb(57,19,69)" transform="translate(0,0)"></path>
<path d="M 1290.19 388.345 C 1320.86 388.559 1351.54 388.574 1382.22 388.389 C 1394.09 388.36 1409.35 387.886 1421.14 388.891 C 1422.77 389.029 1422.65 389.898 1423.68 391.848 C 1416.9 393.701 1293.49 393.372 1290.65 391.744 L 1290.19 388.345 z" fill="rgb(10,0,23)" transform="translate(0,0)"></path>
<path d="M 1787.95 812.375 C 1800.29 810.544 1855.05 812.079 1869.72 812.668 C 1871.34 812.733 1871.42 813.967 1872.38 815.846 C 1866.44 817.918 1802.95 817.21 1792.05 815.899 C 1789.01 815.533 1789.34 814.732 1787.95 812.375 z" fill="rgb(57,19,69)" transform="translate(0,0)"></path>
<path d="M 1787.77 784.312 C 1795.32 783.773 1855.6 783.105 1858.97 784.966 L 1859.65 788.802 C 1850.19 789.073 1793.67 789.867 1788.46 787.194 L 1787.77 784.312 z" fill="rgb(57,19,69)" transform="translate(0,0)"></path>
<path d="M 319.256 380.147 C 327.116 379.912 351.966 377.968 356.991 382.044 C 358.118 385.492 358.002 383.707 356.753 387.582 C 348.302 388.173 325.69 389.45 319.104 386.081 C 317.597 383.223 317.993 384.308 319.256 380.147 z" fill="rgb(242,133,79)" transform="translate(0,0)"></path>
<metadata><recraft-signature>{"signed_by": "recraft", "signature_b64": "9VmPsvZZfK1Tea5HexDerWr7oO9CHoN2t8SfOgWlAXcKTmCHX8E37xfT3Hj7ilXmdgxgB04oUeBNe6vfKUc0Aw==", "signing_algo": "Ed25519", "generation_timestamp": 1772095468, "identifier": "1a02b75f-f874-4ad4-8a44-55217ff24148"}</recraft-signature></metadata></svg>